<?xml version="1.0" standalone="no"?>
<!DOCTYPE svg PUBLIC "-//W3C//DTD SVG 20010904//EN"
 "http://www.w3.org/TR/2001/REC-SVG-20010904/DTD/svg10.dtd">
<svg version="1.0" xmlns="http://www.w3.org/2000/svg"
 width="16.000000pt" height="16.000000pt" viewBox="0 0 16.000000 16.000000"
 preserveAspectRatio="xMidYMid meet">
<metadata>
Created by potrace 1.11, written by Peter Selinger 2001-2013
</metadata>
<g transform="translate(0.000000,16.000000) scale(0.003125,-0.003125)"
fill="#000000" stroke="none">
<path d="M2355 5004 c-110 -64 -218 -126 -240 -138 -22 -13 -229 -133 -460
-266 -231 -134 -451 -261 -490 -283 -38 -22 -134 -77 -212 -123 -77 -45 -165
-96 -195 -112 -29 -17 -134 -77 -233 -135 l-180 -104 0 -1283 0 -1283 125 -72
c69 -40 296 -171 505 -292 398 -230 756 -437 815 -471 41 -23 55 -31 459 -265
265 -153 307 -175 325 -165 25 13 375 215 466 268 36 21 311 180 612 354 301
174 562 325 580 336 18 11 53 31 78 44 25 13 137 78 250 144 l205 120 0 1283
0 1282 -250 145 c-137 79 -268 155 -290 167 -22 13 -80 46 -130 75 -49 29
-106 62 -125 73 -19 10 -136 78 -260 150 -417 241 -485 280 -615 355 -71 41
-155 90 -185 107 -231 133 -318 183 -335 193 -18 9 -50 -6 -220 -104z m380
-914 c149 -20 217 -37 353 -86 362 -131 663 -401 841 -754 217 -430 219 -944
4 -1373 -223 -446 -636 -753 -1128 -836 -85 -15 -148 -18 -280 -16 -93 2 -183
6 -200 10 -16 3 -61 13 -100 21 -164 34 -359 116 -510 214 -527 344 -793 980
-669 1595 2 11 6 31 9 45 21 111 120 347 197 469 209 332 537 573 915 671 173
45 408 61 568 40z"/>
<path d="M2263 3860 c-56 -33 -60 -53 -59 -286 2 -307 -17 -291 356 -291 375
0 356 -16 355 300 -1 312 18 296 -357 296 -243 0 -266 -1 -295 -19z"/>
<path d="M2234 2920 c-272 -7 -272 -6 -268 -240 1 -80 2 -150 3 -157 0 -6 15
-25 32 -42 29 -30 34 -31 115 -31 46 0 85 -3 85 -7 1 -5 2 -167 3 -360 l1
-353 -25 -1 c-14 -1 -45 -1 -69 0 -59 1 -108 -24 -130 -68 -15 -30 -17 -60
-16 -181 1 -159 7 -179 58 -210 31 -19 55 -20 530 -20 542 0 547 1 583 56 27
40 29 302 3 355 -21 43 -71 70 -126 68 -21 -1 -52 -1 -68 0 l-30 1 0 548 c1
585 1 590 -49 623 -26 17 -330 27 -632 19z"/>
</g>
</svg>
